<?xml version="1.0" standalone="no"?><!-- Generator: Gravit.io --><svg xmlns="http://www.w3.org/2000/svg" xmlns:xlink="http://www.w3.org/1999/xlink" style="isolation:isolate" viewBox="0 0 1300 1475" width="1300" height="1475"><linearGradient id="_lgradient_0" x1="-4.124039636300836%" y1="55.5980244138376%" x2="105.26042274533208%" y2="44.28259551338157%"><stop offset="0.6%" stop-opacity="1" style="stop-color:rgb(75,85,123)"/><stop offset="25.4%" stop-opacity="1" style="stop-color:rgb(130,134,164)"/><stop offset="100%" stop-opacity="1" style="stop-color:rgb(139,142,170)"/></linearGradient><path d=" M 22.834 368.004 L 15.491 1092.122 L 653.99 1468.866 L 661.323 737.406 L 22.834 368.004 Z " fill="url(#_lgradient_0)"/><linearGradient id="_lgradient_1" x1="0.07053107725931707%" y1="33.361492659129475%" x2="102.12357308137297%" y2="67.36908079131156%"><stop offset="0%" stop-opacity="1" style="stop-color:rgb(43,61,102)"/><stop offset="7.000000000000001%" stop-opacity="1" style="stop-color:rgb(46,64,104)"/><stop offset="25.3%" stop-opacity="1" style="stop-color:rgb(56,71,111)"/><stop offset="43.1%" stop-opacity="1" style="stop-color:rgb(73,84,122)"/><stop offset="59.9%" stop-opacity="1" style="stop-color:rgb(98,105,140)"/><stop offset="75.4%" stop-opacity="1" style="stop-color:rgb(134,138,167)"/><stop offset="89.3%" stop-opacity="1" style="stop-color:rgb(189,189,206)"/><stop offset="100%" stop-opacity="1" style="stop-color:rgb(216,215,225)"/></linearGradient><path d=" M 1285.147 375.347 L 1282.702 1109.252 L 653.99 1468.866 L 661.323 737.406 L 1285.147 375.347 Z " fill="url(#_lgradient_1)"/><linearGradient id="_lgradient_2" x1="37.155385171615876%" y1="88.37432905662475%" x2="62.86650734348886%" y2="11.411394234774653%"><stop offset="0%" stop-opacity="1" style="stop-color:rgb(216,215,225)"/><stop offset="7.000000000000001%" stop-opacity="1" style="stop-color:rgb(189,189,206)"/><stop offset="25.3%" stop-opacity="1" style="stop-color:rgb(134,138,167)"/><stop offset="43.1%" stop-opacity="1" style="stop-color:rgb(98,105,140)"/><stop offset="59.9%" stop-opacity="1" style="stop-color:rgb(73,84,122)"/><stop offset="75.4%" stop-opacity="1" style="stop-color:rgb(56,71,111)"/><stop offset="89.3%" stop-opacity="1" style="stop-color:rgb(46,64,104)"/><stop offset="100%" stop-opacity="1" style="stop-color:rgb(43,61,102)"/></linearGradient><path d=" M 22.834 368.004 L 661.323 737.406 L 1285.147 375.347 L 655.035 7 L 22.834 368.004 Z " fill="url(#_lgradient_2)"/><path d=" M 1285.147 375.347 L 950.217 570.243 L 662.134 397.333 L 365.937 566.582 L 362.093 903.164 L 658.513 1074.462 L 944.862 914.696 L 948.706 799.3 L 1092.945 712.748 L 1093.067 988.469 L 657.012 1241.663 L 214 991.633 L 214 481.957 L 654.436 230 L 952.55 408.874 L 1146 294 L 1285.147 375.347 Z " fill="rgb(255,255,255)"/></svg>
