<?xml version="1.0" standalone="no"?><!-- Generator: Gravit.io --><svg xmlns="http://www.w3.org/2000/svg" xmlns:xlink="http://www.w3.org/1999/xlink" style="isolation:isolate" viewBox="0 0 379 377.264" width="379" height="377.264"><path d=" M 231.006 118.85 L 241.97 106.391 L 241.97 22.164 L 189.64 42.349 L 189.64 42.349 L 146.281 119.598 L 189.64 102.902 L 231.006 118.85 Z " fill="rgb(2,34,169)"/><path d=" M 323.954 236.219 L 323.954 94.18 L 377.032 73.747 L 377.032 297.271 L 323.954 319.698 L 323.954 319.698 L 245.957 217.779 L 245.957 352.591 L 189.64 376.264 L 189.64 146.012 L 245.957 124.582 L 323.954 236.219 Z " fill="rgb(1,29,169)"/><path d=" M 105.165 297.52 L 55.327 200.834 L 55.327 319.698 L 55.327 319.698 L 105.165 297.52 Z " fill="rgb(2,34,169)"/><path d=" M 108.404 73.747 L 108.404 73.747 L 133.323 124.582 L 146.281 119.598 L 189.64 42.349 L 137.31 21.915 L 108.404 73.747 Z " fill="rgb(6,147,48)"/><path d=" M 231.006 118.85 L 231.006 118.85 L 270.876 73.747 L 323.954 94.18 L 323.954 236.219 L 245.957 124.582 L 231.006 118.85 Z " fill="rgb(6,147,48)"/><path d=" M 189.64 376.264 L 189.64 146.012 L 133.323 124.582 L 133.323 241.452 L 55.078 94.18 L 55.078 94.18 L 2 73.747 L 2 297.271 L 55.078 319.698 L 55.078 200.834 L 133.323 352.591 L 189.64 376.264 Z " fill="rgb(6,147,48)"/><path d=" M 55.327 94.18 L 108.404 73.747 L 133.323 124.582 L 133.323 124.582 L 133.323 241.452 L 55.327 94.18 Z " fill="rgb(254,32,21)"/><path d=" M 245.957 273.348 L 261.906 295.776 L 323.954 319.698 L 323.954 319.698 L 245.957 217.779 L 245.957 273.348 Z " fill="rgb(254,32,21)"/><path d=" M 133.573 124.582 L 189.89 103.151 L 246.207 124.582 L 246.207 124.582 L 189.89 146.012 L 133.573 124.582 Z " fill="rgb(255,192,1)"/><path d=" M 323.954 53.313 L 377.032 73.747 L 323.954 94.18 L 270.876 73.747 L 270.876 73.747 L 323.954 53.313 Z " fill="rgb(255,192,1)"/><path d=" M 55.327 53.313 L 108.404 73.747 L 55.327 94.18 L 2.249 73.747 L 2.249 73.747 L 55.327 53.313 Z " fill="rgb(255,192,1)"/><path d=" M 189.64 1.731 L 137.31 21.915 L 189.64 42.349 L 241.97 22.164 L 241.97 22.164 L 189.64 1.731 Z " fill="rgb(255,192,1)"/></svg>
